<?xml version="1.0" encoding="UTF-8"?>
<!DOCTYPE svg PUBLIC "-//W3C//DTD SVG 1.0//EN" "http://www.w3.org/TR/2001/REC-SVG-20010904/DTD/svg10.dtd">
<!-- Creator: CorelDRAW -->
<svg xmlns="http://www.w3.org/2000/svg" xml:space="preserve" width="115mm" height="115mm" version="1.0" style="shape-rendering:geometricPrecision; text-rendering:geometricPrecision; image-rendering:optimizeQuality; fill-rule:evenodd; clip-rule:evenodd"
viewBox="0 0 11500 11500"
 xmlns:xlink="http://www.w3.org/1999/xlink"
 xmlns:xodm="http://www.corel.com/coreldraw/odm/2003">
 <defs>
  <style type="text/css">
   <![CDATA[
    .str0 {stroke:#373435;stroke-width:20;stroke-miterlimit:22.9256}
    .fil3 {fill:#01FAFF}
    .fil1 {fill:#0C4ED1}
    .fil2 {fill:#34EAFF}
    .fil0 {fill:#363435}
    .fil4 {fill:#FD42F5}
   ]]>
  </style>
 </defs>
 <g id="Layer_x0020_1">
  <metadata id="CorelCorpID_0Corel-Layer"/>
  <g id="_2244700634656">
   <circle class="fil0 str0" cx="5728.62" cy="5723.9" r="5715"/>
   <g>
    <path class="fil1" d="M4764.88 7578.45l122.68 23.89c7.17,1.73 14.48,3.11 21.83,4.25 15.98,2.49 32.14,3.87 47.37,5.39 483.54,48.42 917.56,-112.69 1348.51,-296.22 77.93,-33.18 129.13,-60.8 201.46,-95.78l150.67 -82.05c70.37,-45.1 23.72,-28.87 15.36,-37.23 28.62,-32.59 182.9,-122.87 244.21,-173.22 111.32,-91.45 217.3,-188.86 301.1,-301.19 126.57,-169.65 220.59,-356.9 239.46,-574.62 23.67,-273.19 49.34,-770.65 -104.35,-996.92 -85.53,-125.94 -93.38,-142.64 -218.3,-241.38 -20.9,-16.52 -13.94,-12.14 -27.47,-27.14 -22.98,-25.49 3.62,-3.77 -27.47,-26.68 -403.06,-297.07 -983.21,-454.61 -1500.56,-452.84 -310.86,1.06 -524.99,23.07 -809.88,102.55 -124.96,34.86 -225.05,73.15 -337.83,122.23 -52.57,22.86 -102.86,48.42 -154.94,75.53 -62.62,32.59 -89.36,67.76 -147.92,87.98 -27.07,-91.09 113.59,-367.4 160.74,-449.69 63.45,-110.75 135.93,-252.09 204,-345.24 36.07,-49.36 41.85,-23.36 16.11,-44.25 23.03,-27.08 55.45,-39.26 99.22,-59.61 36.71,-17.07 67.53,-33 103.03,-50.31 684.04,-333.42 1606.5,-197.55 2195.5,307.94l291.21 312.36c60.16,77.54 131.44,189.52 172.89,276.69 134.69,283.27 81.43,193.77 170.24,433.15 39.65,106.88 305.18,7.74 315.06,295.13 5.96,173.63 12.35,432.86 -0.26,602.17 -20.26,272.14 -162.29,262.78 -274.27,326.86 -45.55,26.06 -155.62,280.11 -216.7,384.96 -36.96,63.44 -79.35,128.39 -120.87,186.61 -284.97,399.58 -303.1,265.13 -149.25,547.41 184.44,338.38 131.51,325.42 428.33,480.62 68.21,35.66 162.26,79.16 177.46,125.03l-253.19 201.88c-24.66,19.15 -48.22,32.03 -69.63,51.07l-196.51 133.28c-181.81,52.99 -138.29,90.46 -563.97,192.46 -607.86,145.66 -1282.38,145.25 -1871.64,-74.4l-59.11 -35.93c644.77,-63.17 1203.77,-262.41 1719.23,-628.73 19.28,-13.69 28.41,-24.09 48.67,-38.72 29.47,-21.28 28.4,-15.86 55.94,-42.78l240.99 -217.09c-46.17,18.35 -31.83,20.61 -66.67,40.54 -368.92,211.08 -805.16,263.34 -1226.39,236.7 -356.14,-22.53 -621.05,-115.29 -928.45,-260.31 -66.35,-31.3 -225.72,-97.11 -235.99,-162.16 59.33,5.01 192.57,76.63 265.41,98.89 54.79,16.74 119.38,40.91 181.75,54.41 7.77,1.68 15.51,3.2 23.19,4.51z"/>
    <path class="fil2" d="M4508.03 5061.7c-152.17,31.24 -241.85,292.87 -252.55,497.65 -10.93,208.79 31.22,509.1 161.96,591.57 203.11,128.12 -77.06,-427.4 88.76,-877.39 21.43,-58.16 45.57,-80.25 64.87,-122.6 24.7,-54.19 -15.73,-98.94 -63.04,-89.23z"/>
    <path class="fil3" d="M7269.82 5930.45c-29.04,451.78 -303.02,746.83 -584.1,942.18 -303.57,210.97 -697.33,370.57 -1183.74,342.41 -537.52,-31.13 -993.24,-264.42 -1308.82,-589.18 -61.44,-63.23 -109.99,-150.69 -156.45,-227.64 -112.74,-186.74 -129.26,-389.9 -129.58,-643.21 -0.64,-503.01 -21.95,-586.48 292.08,-854.05 29.88,-25.46 72.56,-61.16 103.17,-83.04 31.42,-22.47 91.36,-53.28 125.57,-72.25 144.43,-80.08 405.02,-170.92 558.8,-197.48 354.44,-61.19 298.46,-79.06 702.46,-62.97 424.93,16.91 881.96,178.12 1163.96,357.9 137.1,87.4 288.77,241.45 359.64,397.47 80.12,176.36 70.32,482.7 57.01,689.86zm-3141.01 -1235.45c-38.57,33.54 -68.21,55.44 -104.63,86.29 -355.01,300.7 -323.1,624.45 -310.64,1083.37 6.96,256.85 43.29,451.68 153.68,648.52 89.5,159.58 130.16,206.61 259,332.94 135.65,133.01 425.89,299.64 619.75,377.97 189.73,76.65 415.8,135.49 644.8,157.34 555.41,53.02 892.75,-67.12 1281.99,-280.73 28.62,-32.59 182.9,-122.87 244.21,-173.22 111.32,-91.45 217.3,-188.86 301.1,-301.19 126.57,-169.65 220.59,-356.9 239.46,-574.62 23.67,-273.19 49.34,-770.65 -104.35,-996.92 -85.53,-125.94 -93.38,-142.64 -218.3,-241.38 -20.9,-16.52 -13.94,-12.14 -27.47,-27.14 -22.98,-25.49 3.62,-3.77 -27.47,-26.68 -403.06,-297.07 -983.21,-454.61 -1500.56,-452.84 -310.86,1.06 -524.99,23.07 -809.88,102.55 -124.96,34.86 -225.05,73.15 -337.83,122.23 -52.57,22.86 -102.86,48.42 -154.94,75.53 -62.62,32.59 -89.36,67.76 -147.92,87.98z"/>
    <path class="fil3" d="M3923.05 7251.17c-63.37,75.86 -112.46,181.5 -163.7,258.61 -34.76,52.32 -56.67,76.48 -89.84,118.44 -13.28,16.79 -79.64,88.58 -92.62,98.59 55.16,11.36 78.16,0.41 124.87,6.31 48.89,6.18 46.37,25.98 67.45,66.28 1.17,2.23 2.75,6.21 4.96,8.73 17.07,-16.39 364.76,-521.86 389.73,-583.85l-189.16 -237.61c-139.03,-191.1 -224.37,-341.04 -317.52,-559.4 -64.09,-150.22 -55.53,-171.62 -226.75,-211.8 21.2,38.73 4.57,15.24 -0.16,23.56 -64.98,-16.92 -102.83,-64.5 -123.51,-121.49 -34.17,-94.12 -22.77,-123.45 -22.08,-230.95 1.05,-164.64 -10.07,-342.19 -1.63,-504.86 8.34,-160.73 89.08,-240.37 234.99,-265.65 76.15,-13.2 79.82,-72.78 106.54,-140.43l69.36 -183.1c58.14,-180.24 300.93,-515.82 437.91,-660.9 19.65,-20.81 7.36,-7.03 28.39,-25.99 0.04,-0.05 17.41,-16.26 17.44,-16.3 1.63,-1.68 3.68,-4.24 5.26,-5.93l56.71 -50.96c39.8,-38.26 92.43,-99.29 146.56,-139.13 132.93,-97.83 99.23,-103.54 133.13,-167.02 23.7,-44.35 11.59,30.53 20.13,-44.85 -223.89,67.56 -567.84,385.22 -697.47,567.66 -28.62,40.28 -40.68,68.91 -69.05,117.36 -43.11,73.67 -90.34,148.55 -130.79,229.94 -18.15,36.52 -34.26,79.3 -56.85,119.05 -48.01,84.48 -54.91,167.44 -107.62,253.38 -31.76,51.77 -65.52,40.26 -122.72,64.79 -52.89,22.69 -150.08,125.97 -169.01,190.49 -37.36,127.32 -26.55,529.39 -22.96,695.34 3.45,159.83 5.47,354.62 176.75,441.77 25.27,12.85 42.98,14.62 69.52,29.46 71.59,40.02 119.26,173.42 160.85,243.49 11.65,19.64 6.43,9.78 17.71,26.31 17.07,25.02 92.78,189.65 159.61,289.38 36.15,53.95 20.87,12.34 53.23,75.14l97.37 137.17c23.68,28.39 70.89,133.37 24.97,88.97zm-765 -1057.52c19.27,61.35 55.57,109.42 95.03,144.54 173.75,154.65 103.85,-65.44 322.52,357.37 68.62,132.69 175.13,305.16 264.25,425.99 34.22,46.4 69.23,66.44 83.2,129.62 45.92,44.4 -1.29,-60.58 -24.97,-88.97l-97.37 -137.17c-32.36,-62.8 -17.08,-21.19 -53.23,-75.14 -66.83,-99.73 -142.54,-264.36 -159.61,-289.38 -11.28,-16.53 -6.06,-6.67 -17.71,-26.31 -41.59,-70.07 -89.26,-203.47 -160.85,-243.49 -26.54,-14.84 -44.25,-16.61 -69.52,-29.46 -171.28,-87.15 -173.3,-281.94 -176.75,-441.77 -3.59,-165.95 -14.4,-568.02 22.96,-695.34 18.93,-64.52 116.12,-167.8 169.01,-190.49 57.2,-24.53 90.96,-13.02 122.72,-64.79 52.71,-85.94 59.61,-168.9 107.62,-253.38 22.59,-39.75 38.7,-82.53 56.85,-119.05 40.45,-81.39 87.68,-156.27 130.79,-229.94 28.37,-48.45 40.43,-77.08 69.05,-117.36 129.63,-182.44 473.58,-500.1 697.47,-567.66 -8.54,75.38 3.57,0.5 -20.13,44.85 -33.9,63.48 -0.2,69.19 -133.13,167.02 -54.13,39.84 -106.76,100.87 -146.56,139.13l-56.71 50.96c-1.58,1.69 -3.63,4.25 -5.26,5.93 -0.03,0.04 -17.4,16.25 -17.44,16.3 -21.03,18.96 -8.74,5.18 -28.39,25.99 -136.98,145.08 -379.77,480.66 -437.91,660.9l-69.36 183.1c-26.72,67.65 -30.39,127.23 -106.54,140.43 -145.91,25.28 -226.65,104.92 -234.99,265.65 -8.44,162.67 2.68,340.22 1.63,504.86 -0.69,107.5 -12.09,136.83 22.08,230.95 20.68,56.99 58.53,104.57 123.51,121.49 4.73,-8.32 21.36,15.17 0.16,-23.56l-40.23 -39.22c-85.51,-105.81 -68.65,-223.49 -71.48,-377.37 -7.2,-392.96 -67.98,-593.46 241.51,-660.77 71.58,-15.58 70.91,-66.93 91.41,-137.66 100.47,-346.59 365.35,-737.62 613.47,-954.56l244.51 -190.07c23.03,-27.08 55.45,-39.26 99.22,-59.61 36.71,-17.07 67.53,-33 103.03,-50.31 684.04,-333.42 1606.5,-197.55 2195.5,307.94l291.21 312.36c60.16,77.54 131.44,189.52 172.89,276.69 134.69,283.27 81.43,193.77 170.24,433.15 39.65,106.88 305.18,7.74 315.06,295.13 5.96,173.63 12.35,432.86 -0.26,602.17 -20.26,272.14 -162.29,262.78 -274.27,326.86 -45.55,26.06 -155.62,280.11 -216.7,384.96 -36.96,63.44 -79.35,128.39 -120.87,186.61 -284.97,399.58 -303.1,265.13 -149.25,547.41 184.44,338.38 131.51,325.42 428.33,480.62 68.21,35.66 162.26,79.16 177.46,125.03 37.18,-29.77 71.35,-72.63 127.71,-45.62 35.65,47.73 12.01,89.72 5.05,146.02 35.19,4.07 15.54,-0.58 46.94,10.42 1.78,0.62 22.04,9.82 23.26,10.49 17.96,9.97 9.13,3.61 21.29,14.72 64.12,7.97 245.14,131.03 304.59,163l276.41 205.57c95.03,77.3 162.75,136.24 237.53,234.28 39.54,51.84 66.96,82.5 103.4,138.14 35.86,54.77 54.88,119.93 133.51,91.18 49.64,-43.91 34.53,-75.02 10.11,-136.43 -118.13,-297 -374.41,-508.21 -627.97,-687.96 -68.5,-48.56 -151.68,-96.37 -232.08,-141.44l-599.29 -343.07c-42.72,-25.34 -88.93,-46.63 -93.41,-100.93 -39.35,-16.41 -44.92,-51.26 -63.58,-82.08 -40.29,-66.52 -147.52,-230.55 -130.51,-277.65 7.95,-22.02 48.26,-69.36 60.51,-83.18 78.01,-88.02 222.46,-320.78 282.27,-429.53l97.39 -188.12c76.45,-172.77 43.2,-60.45 223.85,-204.72 26.36,-21.05 41.75,-45.59 69.03,-59.89 24.93,-86.92 88.47,-120.13 102.99,-189.12 -47.14,-31.67 -33.26,-76.23 -33.23,-149.4 0.02,-58.49 -0.25,-116.95 -0.07,-175.46 0.38,-120.61 0.87,-241.26 0.79,-361.87 -0.21,-361.27 -296.11,-381.66 -321.31,-405.66 -0.49,-0.46 -134.02,-340.39 -169.72,-398.54 -148.12,-241.32 -149.24,-268.2 -348.66,-496.11l-148.71 -135.96c-530.55,-486.5 -1398.99,-713.55 -2165.85,-466.73 -366.86,118.08 -641.14,299.77 -877.6,536.89 -54.07,54.22 -83.87,98.1 -133.86,151.05 -74.05,78.41 -161.82,231.02 -222.07,337.36 -72.28,127.56 -114.85,246.34 -179.71,389.93 -70.33,155.73 -151.09,43.2 -296.55,263.09 -82.87,125.29 -56.15,344.1 -56.07,509.8 0.07,128.78 -15.92,430 30.42,526.35z"/>
    <path class="fil4" d="M3162.74 7597.08c-17.08,-39.34 -64.73,-95.57 -91.48,-134.22 -397.3,-573.79 -562.8,-1197.66 -529.97,-1916 13.54,-296.21 64.86,-494.86 135.07,-754.41 143.73,-531.38 462.1,-1016.14 852.36,-1394.99 178.87,-173.66 291.9,-259.08 509.84,-389.07 287.43,-171.42 634.76,-304.72 974.64,-362.61 515.81,-87.87 1104.85,-58.72 1579.28,122.85 279.25,106.87 637.73,292.14 862.87,474.8l240.67 208.61 267.54 302.13c162.31,218.47 343.83,525.37 436.96,791.26 37.47,107 83.06,230.8 106.23,342.88 10.63,51.42 64.32,339.8 76.96,363.23 61.97,-3.86 125.51,-72.72 155.38,-110.55 7.19,-184.61 -134.26,-604.44 -198.8,-746.06 -90.46,-198.5 -210.76,-440.93 -330.57,-612.47 -91.24,-130.65 -337.93,-423.97 -438.05,-504.53 -423.58,-340.85 -620.5,-502.19 -1188.21,-698.16 -224.42,-77.46 -526.1,-143.13 -784.35,-156.83 -573.29,-30.41 -1146.07,79.77 -1589.7,295.39 -389.48,189.32 -406.31,212.82 -718.07,466.37 -51.1,41.56 -66.39,54.77 -120.9,109.15 -43.17,43.06 -77.48,77.74 -120.1,121.24 -71.31,72.79 -201.66,251.54 -265.13,327.03 -60.31,71.75 -45.87,65.01 -93.93,136.15 -163.62,242.14 -318.9,600.95 -403.82,890.2 -157.37,536.1 -182.24,1087.93 -59.68,1659.97 54.24,253.19 140.68,492.97 242.52,700.76 86.86,177.25 245.96,418.98 361.82,575.87 33.92,-16.58 108.38,-74.43 130.62,-107.99z"/>
    <path class="fil4" d="M8507.01 3692.68c275.15,28.37 1256.07,-456.71 1466,92.25 20.41,53.38 46.15,175.81 10.3,226.54 11.78,178.81 -289.04,566.78 -408.58,706.06 -105.17,122.55 -302.46,343.71 -404.96,439.19 -127.09,118.38 -503.75,485.1 -652.82,586.23 -39.45,26.76 -31.79,27.34 -64.97,55.58l-348.17 254.54 -23.56 15.84c-14.52,68.99 -78.06,102.2 -102.99,189.12l8.84 32.59c77.86,-8.58 70.58,3.82 131.62,-36.21l310.62 -216.4c69.85,-50.83 127.5,-102.93 197.55,-152.95 140.66,-100.43 247.65,-213.44 381.28,-320.54 155.8,-124.89 471.23,-454.7 610.16,-617.64 93.94,-110.17 144.52,-157.39 238.41,-288.25 475.82,-663.15 334.14,-754.94 451.7,-951.72 44,-73.66 107.69,-123.76 190.57,-160.12 174.17,-76.42 217.91,-29.17 247.95,-94.36 -25.15,-56.72 -110.44,-35.15 -254.8,-66.23 -227.31,-48.93 -257.89,-187.8 -304.95,-329.54 -33.18,-99.91 -38.69,-191.49 -100.34,-220.44 -49.29,24.55 -73.91,119.14 -106.1,203.29 -105.19,274.96 -143.57,252.4 -559.28,329.09 -166.13,30.64 -880.67,160.5 -956.58,237.34 14.94,24.51 41.8,50.42 43.1,86.74z"/>
    <path class="fil4" d="M2172.99 6684.22c-15.57,39.99 -369.35,324.38 -447.91,402.76 -124.4,124.1 -306.03,297.19 -413.83,441.76l-178.02 249.26c-125.77,192.01 -318.92,562.62 -126.18,772.79 79.46,86.64 50.14,49.74 118.22,99 360.44,122.59 775.58,-3.16 1119.48,-121.75 56.42,-19.46 107.17,-35.74 163.69,-55.64 361.15,-127.13 617.43,-266.7 936.9,-411.46l52.68 -24.38c2.26,-1.1 5.07,-2.52 7.33,-3.62 2.26,-1.11 5.07,-2.52 7.33,-3.62l88.73 -42.98c103.78,-52.97 211.86,-81.83 272.76,-178.21 -2.21,-2.52 -3.79,-6.5 -4.96,-8.73 -21.08,-40.3 -18.56,-60.1 -67.45,-66.28 -46.71,-5.9 -69.71,5.05 -124.87,-6.31 -69.88,17.95 -196.45,98.29 -259.64,129.76 -243.7,121.41 -527.32,271.36 -772.7,367.97 -274.29,107.99 -868.5,349.7 -1214.8,298.67 -258.02,-38.04 -248.96,-273.95 -141.79,-482.12 165.38,-321.25 409.75,-584.39 669.42,-843.7l298.32 -272.02c104.48,-88.4 141.69,-61.08 61.65,-255.68l-44.36 14.53z"/>
    <path class="fil4" d="M8182.9 7674.76c142.73,-236.18 277.64,-391.97 383.73,-698.06 45.94,-132.56 99.74,-264.98 135.86,-412.14 12.38,-50.42 89.48,-367.99 81.78,-424.57 -4.2,-30.86 -4.44,-18.84 -9.75,-28.33 -37.08,-10.25 -147.76,64.4 -176.43,96.38 -23.78,26.52 -36.99,140.02 -55.75,219.22 -75.79,319.88 -246.35,806.94 -452.74,1070.45 -26.93,34.38 -39.1,42.97 -55.78,77.44 21.25,56.52 99.97,98.28 149.08,99.61zm-481.65 350.07l-253.19 201.88c-24.66,19.15 -48.22,32.03 -69.63,51.07l-196.51 133.28c-68.95,62.55 -298.55,173.56 -393.78,219.43 -741.9,357.4 -1753.78,328.26 -2492.78,-23.48 -313.35,-149.14 -327.1,-163.36 -584.85,-336.11 -71.38,-47.84 -169.88,18.87 -194.1,73.66 72.38,45.73 138.49,105.06 219.22,153.38 43.92,26.28 68.84,48.96 112.13,74.09 573.46,332.83 1228.84,540.36 1932.56,478.1 110.16,-9.75 236.78,-12.98 341.95,-33.21 290.42,-55.86 585.75,-152.07 844.73,-273.37 190.38,-89.16 777.01,-464.18 867.01,-618.32 6.96,-56.3 30.6,-98.29 -5.05,-146.02 -56.36,-27.01 -90.53,15.85 -127.71,45.62z"/>
   </g>
  </g>
 </g>
</svg>
